HIERARCHY
ROOT Hips
{
	OFFSET 0.00000 0.00000 0.00000
	CHANNELS 6 Xposition Yposition Zposition Zrotation Yrotation Xrotation 
	JOINT LHipJoint
	{
		OFFSET 0 0 0
		CHANNELS 3 Zrotation Yrotation Xrotation
		JOINT LeftUpLeg
		{
			OFFSET 1.26600 -1.82114 0.91038
			CHANNELS 3 Zrotation Yrotation Xrotation
			JOINT LeftLeg
			{
				OFFSET 2.50076 -6.87080 0.00000
				CHANNELS 3 Zrotation Yrotation Xrotation
				JOINT LeftFoot
				{
					OFFSET 2.57364 -7.07102 0.00000
					CHANNELS 3 Zrotation Yrotation Xrotation
					JOINT LeftToeBase
					{
						OFFSET 0.13572 -0.37290 1.97004
						CHANNELS 3 Zrotation Yrotation Xrotation
						End Site
						{
							OFFSET 0.00000 -0.00000 1.01383
						}
					}
				}
			}
		}
	}
	JOINT RHipJoint
	{
		OFFSET 0 0 0
		CHANNELS 3 Zrotation Yrotation Xrotation
		JOINT RightUpLeg
		{
			OFFSET -1.20803 -1.82114 0.91038
			CHANNELS 3 Zrotation Yrotation Xrotation
			JOINT RightLeg
			{
				OFFSET -2.54916 -7.00377 0.00000
				CHANNELS 3 Zrotation Yrotation Xrotation
				JOINT RightFoot
				{
					OFFSET -2.56374 -7.04382 0.00000
					CHANNELS 3 Zrotation Yrotation Xrotation
					JOINT RightToeBase
					{
						OFFSET -0.23520 -0.64621 2.09921
						CHANNELS 3 Zrotation Yrotation Xrotation
						End Site
						{
							OFFSET -0.00000 -0.00000 1.10065
						}
					}
				}
			}
		}
	}
	JOINT LowerBack
	{
		OFFSET 0 0 0
		CHANNELS 3 Zrotation Yrotation Xrotation
		JOINT Spine
		{
			OFFSET 0.05492 2.10797 -0.12074
			CHANNELS 3 Zrotation Yrotation Xrotation
			JOINT Spine1
			{
				OFFSET 0.04577 2.11592 -0.04483
				CHANNELS 3 Zrotation Yrotation Xrotation
				JOINT Neck
				{
					OFFSET 0 0 0
					CHANNELS 3 Zrotation Yrotation Xrotation
					JOINT Neck1
					{
						OFFSET -0.10759 1.80167 0.15770
						CHANNELS 3 Zrotation Yrotation Xrotation
						JOINT Head
						{
							OFFSET 0.09237 1.77509 -0.40848
							CHANNELS 3 Zrotation Yrotation Xrotation
							End Site
							{
								OFFSET 0.03805 1.84093 -0.15754
							}
						}
					}
				}
				JOINT LeftShoulder
				{
					OFFSET 0 0 0
					CHANNELS 3 Zrotation Yrotation Xrotation
					JOINT LeftArm
					{
						OFFSET 3.42372 1.09575 -0.28209
						CHANNELS 3 Zrotation Yrotation Xrotation
						JOINT LeftForeArm
						{
							OFFSET 4.95681 -0.00000 0.00000
							CHANNELS 3 Zrotation Yrotation Xrotation
							JOINT LeftHand
							{
								OFFSET 3.40915 -0.00000 0.00000
								CHANNELS 3 Zrotation Yrotation Xrotation
								JOINT LeftFingerBase
								{
									OFFSET 0 0 0
									CHANNELS 3 Zrotation Yrotation Xrotation
									JOINT LeftHandIndex1
									{
										OFFSET 0.61640 -0.00000 0.00000
										CHANNELS 3 Zrotation Yrotation Xrotation
										End Site
										{
											OFFSET 0.49696 -0.00000 0.00000
										}
									}
								}
								JOINT LThumb
								{
									OFFSET 0 0 0
									CHANNELS 3 Zrotation Yrotation Xrotation
									End Site
									{
										OFFSET 0.50455 -0.00000 0.50455
									}
								}
							}
						}
					}
				}
				JOINT RightShoulder
				{
					OFFSET 0 0 0
					CHANNELS 3 Zrotation Yrotation Xrotation
					JOINT RightArm
					{
						OFFSET -3.24731 1.15872 -0.32221
						CHANNELS 3 Zrotation Yrotation Xrotation
						JOINT RightForeArm
						{
							OFFSET -5.35200 -0.00000 0.00000
							CHANNELS 3 Zrotation Yrotation Xrotation
							JOINT RightHand
							{
								OFFSET -3.43721 -0.00000 -0.00000
								CHANNELS 3 Zrotation Yrotation Xrotation
								JOINT RightFingerBase
								{
									OFFSET 0 0 0
									CHANNELS 3 Zrotation Yrotation Xrotation
									JOINT RightHandIndex1
									{
										OFFSET -0.72009 -0.00000 0.00000
										CHANNELS 3 Zrotation Yrotation Xrotation
										End Site
										{
											OFFSET -0.58056 -0.00000 0.00000
										}
									}
								}
								JOINT RThumb
								{
									OFFSET 0 0 0
									CHANNELS 3 Zrotation Yrotation Xrotation
									End Site
									{
										OFFSET -0.58942 -0.00000 0.58942
									}
								}
							}
						}
					}
				}
			}
		}
	}
}
MOTION
Frames: 14
Frame Time: .0083333
30.1467 17.8473 0.2639 0 0 0 0 0 0 -21 0 0 0 0 0 0 0 0 0 0 0 0 0 0 21 0 0 0 0 0 0 0 0 0 0 0 0 0 0 0 0 0 0 0 0 0 0 -16 0 0 21 0 0 11 0 0 0 -8 0 0 0 0 0 0 0 0 0 0 0 0 0 0 0 0 0 0 0 0 8 0 0 0 0 0 0 0 0 0 0 0 0 0 0 0 0 0
30.1467 17.8473 0.2639 -152.8190 -80.8952 154.8990 0.0000 0.0000 0.0000 -12.2627 -12.7424 -13.9496 5.1070 13.5033 41.2828 -0.4121 -14.1872 -3.9816 0.1011 2.0504 5.6449 0.0000 0.0000 0.0000 27.2758 -2.2903 -2.1830 -1.5672 -7.8995 22.4092 -1.0679 6.4977 -18.4461 -0.3233 -3.6547 10.1071 5.5120 1.1819 5.4246 3.7356 1.8216 1.4628 0.6429 0.8453 -1.4781 -9.5257 0.3982 -12.7034 2.3103 0.6749 38.6708 2.6390 -1.4055 15.7875 0.0000 0.0000 0.0000 -92.2048 6.4289 7.0230 13.7044 -22.3106 -2.7149 -0.0000 0.0000 -3.6010 20.7968 16.3934 6.1183 -7.1250 0.0000 -0.0000 -6.7020 47.3358 -0.3880 0.0000 0.0000 0.0000 83.3996 -0.1995 13.4535 -14.6524 23.6596 -3.0851 0.0000 -0.0000 -9.2593 -21.6084 11.6939 -4.5900 7.1250 -0.0000 -0.0000 3.8822 -17.4467 2.5455
30.1652 17.8614 0.2438 -151.9680 -81.0690 153.8540 0.0000 0.0000 0.0000 -12.0264 -13.4067 -14.7306 5.5506 13.9782 43.1502 -0.4465 -13.7131 -2.5316 0.2082 2.9378 8.1056 0.0000 0.0000 0.0000 27.3780 -2.8241 -1.8084 -1.4651 -7.6495 21.6544 -1.0356 6.4309 -18.1622 -0.2867 -3.4435 9.5159 5.4579 1.1041 5.7446 3.8743 1.7278 1.5920 0.8172 0.7953 -1.5317 -9.2097 0.4458 -12.5069 1.9734 0.7689 38.4483 2.4477 -1.3512 15.6243 -0.0000 -0.0000 0.0000 -92.6887 6.3333 7.0389 13.7397 -22.3614 -2.7283 -0.0000 0.0000 -3.3829 21.7284 16.9994 6.6457 -7.1250 0.0000 -0.0000 -5.9641 48.1058 -0.4585 -0.0000 -0.0000 0.0000 82.9517 0.3411 13.3576 -14.4188 23.3303 -2.9920 0.0000 -0.0000 -9.2003 -21.3496 11.7516 -4.5518 7.1250 -0.0000 -0.0000 4.0651 -17.4085 2.6694
30.1818 17.8671 0.2278 -151.0770 -81.2397 152.9280 0.0000 0.0000 0.0000 -11.7198 -14.0953 -15.7705 6.0059 14.4341 45.0056 -0.4764 -13.2893 -0.9296 0.3665 3.8885 10.7632 0.0000 0.0000 0.0000 27.4852 -3.1040 -1.6640 -1.4001 -7.4853 21.1613 -0.9839 6.7592 -17.7026 -0.4277 -4.1973 11.6325 5.4915 1.0747 5.8506 3.9411 1.6903 1.6769 0.8690 0.7758 -1.5049 -9.9815 0.3983 -12.8407 2.4536 0.7910 38.6365 2.8030 -1.3962 15.7941 0.0000 -0.0000 0.0000 -93.0842 6.2139 7.1386 13.7651 -22.3979 -2.7380 -0.0000 0.0000 -3.3108 22.7439 17.4521 7.1659 -7.1250 0.0000 -0.0000 -5.0978 48.7365 -0.4709 0.0000 -0.0000 0.0000 82.7275 0.7192 12.9221 -14.3439 23.2242 -2.9624 0.0000 -0.0000 -9.0934 -21.0669 12.0433 -4.5952 7.1250 -0.0000 -0.0000 4.2719 -17.1241 2.8327
30.2010 17.8437 0.2141 -150.0910 -81.4075 151.8910 0.0000 0.0000 0.0000 -11.4786 -14.3814 -16.9364 6.4496 14.8503 46.7604 -0.4756 -12.6877 0.6432 0.3685 3.8990 10.7928 0.0000 0.0000 0.0000 27.6308 -3.3138 -1.5325 -1.3482 -7.3507 20.7586 -0.9418 6.8202 -17.3208 -0.4758 -4.4239 12.2724 5.6415 1.0729 5.9477 3.9335 1.6956 1.7676 0.7766 0.7787 -1.4600 -10.1993 0.3856 -12.8763 2.6603 0.7751 38.6060 2.9300 -1.4005 15.7852 0.0000 0.0000 0.0000 -93.3119 5.9938 7.2148 13.7176 -22.3296 -2.7199 -0.0000 0.0000 -3.2375 23.5980 17.4202 7.4510 -7.1250 0.0000 -0.0000 -4.2648 48.8342 -0.4040 0.0000 0.0000 0.0000 82.6105 0.7897 13.3710 -14.5058 23.4531 -3.0265 0.0000 -0.0000 -9.4216 -21.9597 11.6529 -4.6560 7.1250 -0.0000 -0.0000 3.6351 -17.4586 2.3819
30.2097 17.8855 0.1948 -148.2230 -81.4626 149.8800 0.0000 0.0000 0.0000 -10.9007 -14.9495 -18.0130 6.9630 15.3006 48.7341 -0.4368 -11.7794 2.2649 0.4853 4.4672 12.3950 0.0000 0.0000 0.0000 27.9510 -3.4612 -1.0048 -1.2558 -7.1043 20.0247 -0.9517 6.2679 -17.4028 -0.4021 -4.0713 11.2774 5.8996 1.0772 6.1965 4.0050 1.7271 1.8436 0.7012 0.7904 -1.5128 -10.2718 0.3807 -12.7947 2.8271 0.7175 38.5795 3.0054 -1.4088 15.7533 -0.0000 -0.0000 0.0000 -93.5800 5.9232 7.6210 13.7139 -22.3243 -2.7185 -0.0000 0.0000 -3.3420 24.5574 17.2832 7.7309 -7.1250 0.0000 -0.0000 -3.3041 48.8369 -0.3130 -0.0000 -0.0000 0.0000 82.4060 0.8045 13.7384 -14.6991 23.7252 -3.1039 0.0000 -0.0000 -9.5714 -22.6012 10.9843 -4.5352 7.1250 -0.0000 -0.0000 3.1603 -18.1174 2.0240
30.2289 17.8428 0.1722 -144.5920 -81.3631 146.1000 0.0000 0.0000 0.0000 -10.1806 -14.6570 -19.1557 7.4232 15.6781 50.4572 -0.4281 -11.5174 3.6413 0.1791 2.7259 7.5166 0.0000 0.0000 0.0000 28.6258 -3.6247 -0.6352 -1.2001 -6.9507 19.5694 -0.9800 5.8201 -17.6676 -0.3884 -4.0018 11.0817 6.2276 1.1185 6.4782 4.2596 1.8136 1.9041 0.7720 0.8247 -1.6012 -10.4078 0.2945 -12.6365 2.9601 0.5597 38.4894 3.0591 -1.4692 15.6823 -0.0000 0.0000 0.0000 -93.9859 5.9608 8.2684 13.7602 -22.3908 -2.7361 -0.0000 0.0000 -3.4054 25.3827 17.2923 8.0276 -7.1250 0.0000 -0.0000 -2.5024 48.9766 -0.2456 -0.0000 0.0000 0.0000 82.2088 0.9574 12.9188 -14.7976 23.8634 -3.1436 0.0000 -0.0000 -9.1161 -22.1448 10.7567 -4.3436 7.1250 -0.0000 -0.0000 3.4739 -18.4010 2.2037
30.2373 17.8759 0.1440 -143.8510 -81.3850 145.3340 0.0000 0.0000 0.0000 -9.5728 -15.1194 -20.3935 7.9470 16.0801 52.3714 -0.2929 -9.7983 5.9810 0.8701 5.9474 16.6319 0.0000 0.0000 0.0000 28.8072 -4.0027 -0.4152 -1.1169 -6.7137 18.8700 -0.9412 5.7530 -17.3096 -0.3259 -3.6690 10.1473 6.1043 1.1152 6.6024 4.4139 1.8090 1.9199 0.9982 0.8187 -1.6632 -10.6352 0.2654 -12.4594 2.9834 0.5488 38.3882 3.1033 -1.4983 15.5914 0.0000 -0.0000 0.0000 -94.4665 6.0311 8.4119 13.8337 -22.4965 -2.7642 -0.0000 0.0000 -3.3870 25.8948 17.3178 8.2228 -7.1250 0.0000 -0.0000 -2.0069 49.0860 -0.2023 0.0000 -0.0000 0.0000 81.9628 1.0755 12.7798 -14.8853 23.9861 -3.1792 0.0000 -0.0000 -9.0702 -22.2364 10.7151 -4.3469 7.1250 -0.0000 -0.0000 3.4079 -18.4378 2.1590
30.2486 17.8730 0.1272 -146.5160 -81.6131 147.9510 0.0000 0.0000 0.0000 -9.9985 -14.5972 -21.9273 8.4289 16.4258 54.0932 -0.2303 -9.1325 6.9874 0.2556 3.2531 8.9843 0.0000 0.0000 0.0000 28.3584 -4.1304 -0.2634 -1.0723 -6.5827 18.4849 -0.8981 5.9201 -16.9009 -0.3440 -3.7685 10.4262 5.4540 0.9549 6.6920 4.4609 1.5654 1.9262 1.4252 0.6987 -1.7338 -10.8253 0.4369 -12.2877 2.7818 0.8975 38.3701 3.1002 -1.4124 15.5140 0.0000 -0.0000 0.0000 -95.1240 6.0935 7.7892 13.9046 -22.5981 -2.7913 -0.0000 0.0000 -3.3574 26.3046 17.3617 8.3912 -7.1250 0.0000 -0.0000 -1.6136 49.1998 -0.1672 0.0000 -0.0000 0.0000 81.5753 1.0957 13.7631 -14.9899 24.1321 -3.2218 0.0000 -0.0000 -9.2881 -22.7992 10.6845 -4.4562 7.1250 -0.0000 -0.0000 3.0096 -18.4223 1.9069
30.2553 17.8768 0.1042 -146.0790 -81.6187 147.3860 0.0000 0.0000 0.0000 -9.7771 -14.3363 -23.2909 8.9885 16.8003 56.0503 -0.1761 -8.6511 7.9114 0.0641 1.6341 4.4956 0.0000 0.0000 0.0000 28.4539 -4.5293 0.1901 -0.9797 -6.3007 17.6593 -0.8563 6.0615 -16.4994 -0.3803 -3.9606 10.9658 5.2313 0.7862 6.8719 4.6835 1.3346 1.9625 1.7968 0.5789 -1.8105 -10.9588 0.6121 -12.1500 2.5257 1.2569 38.3966 3.0661 -1.3236 15.4683 -0.0000 0.0000 0.0000 -95.7246 6.0735 7.3957 13.9469 -22.6587 -2.8076 -0.0000 0.0000 -3.4327 26.4767 17.4462 8.4931 -7.1250 0.0000 -0.0000 -1.4604 49.3199 -0.1556 -0.0000 0.0000 0.0000 81.1570 1.1357 14.3428 -15.0896 24.2708 -3.2627 0.0000 -0.0000 -9.1345 -22.9276 10.8005 -4.5320 7.1250 -0.0000 -0.0000 2.9234 -18.2862 1.8609
30.2597 17.8720 0.0806 -142.2570 -81.2600 143.4710 0.0000 0.0000 0.0000 -8.7726 -14.2029 -24.5911 9.5960 17.1763 58.1293 -0.0888 -7.6374 8.6636 0.1670 2.6326 7.2574 0.0000 0.0000 0.0000 29.2131 -5.2551 0.4351 -0.9019 -6.0524 16.9364 -0.8153 6.2322 -16.1010 -0.3017 -3.5314 9.7620 5.5557 0.5927 7.0317 5.2114 1.0898 2.0280 2.1854 0.4428 -1.8353 -11.5753 0.7871 -12.2090 2.4875 1.7037 38.5165 3.2283 -1.2440 15.5052 0.0000 0.0000 0.0000 -96.4875 6.0607 7.2576 14.0127 -22.7529 -2.8330 -0.0000 0.0000 -3.6389 26.8098 17.6972 8.7335 -7.1250 0.0000 -0.0000 -1.1787 49.6489 -0.1351 0.0000 0.0000 0.0000 80.2567 1.2875 15.3265 -15.2003 24.4245 -3.3083 0.0000 -0.0000 -9.3423 -22.9992 10.8374 -4.5630 7.1250 -0.0000 -0.0000 2.8744 -18.2402 1.8326
30.2602 17.8735 0.0632 -139.7240 -80.8674 140.8110 0.0000 0.0000 0.0000 -7.9668 -13.8746 -25.9493 10.2765 17.5624 60.4087 -0.0156 -6.3632 8.6594 0.3206 3.6395 10.0645 0.0000 0.0000 0.0000 29.8645 -5.6033 1.0220 -0.8029 -5.7187 15.9703 -0.7882 5.8881 -15.8237 -0.2230 -3.0395 8.3886 5.8067 0.4566 7.2056 5.6624 0.9161 2.1186 2.5315 0.3432 -1.8398 -12.1789 0.9464 -12.3037 2.5717 2.0932 38.5914 3.4320 -1.1650 15.5263 -0.0000 -0.0000 0.0000 -97.2371 6.0437 7.1117 14.0533 -22.8108 -2.8487 -0.0000 0.0000 -3.4572 27.4851 17.9924 9.1292 -7.1250 0.0000 -0.0000 -0.5623 50.0863 -0.0705 -0.0000 -0.0000 0.0000 79.2675 1.5006 16.8055 -15.2406 24.4802 -3.3250 0.0000 -0.0000 -10.0659 -23.0765 10.4930 -4.4367 7.1250 -0.0000 -0.0000 2.8065 -18.6048 1.7666
30.2573 17.8983 0.0442 -138.7650 -80.7612 139.6750 0.0000 0.0000 0.0000 -7.6419 -13.3303 -27.3068 10.9816 17.9261 62.7217 0.0140 -5.3363 8.0357 0.3534 3.8194 10.5691 0.0000 0.0000 0.0000 30.1373 -5.6926 1.8131 -0.6996 -5.3463 14.8989 -0.7937 5.3428 -15.8812 -0.1921 -2.8228 7.7858 5.8751 0.4484 7.4079 5.7811 0.9140 2.2136 2.6173 0.3377 -1.8538 -12.2614 0.9901 -12.2882 2.6760 2.1442 38.5672 3.4989 -1.1379 15.5006 0.0000 0.0000 0.0000 -97.5775 6.0418 7.2674 14.1421 -22.9375 -2.8833 -0.0000 0.0000 -2.9636 27.9936 18.2200 9.4365 -7.1250 0.0000 -0.0000 -0.0943 50.4246 -0.0126 0.0000 0.0000 0.0000 78.8440 1.6677 17.8169 -15.1990 24.4225 -3.3078 0.0000 -0.0000 -10.9224 -23.0530 10.3518 -4.3730 7.1250 -0.0000 -0.0000 2.8179 -18.7591 1.7641
30.2567 17.9046 0.0270 -137.9910 -80.8556 138.7530 0.0000 0.0000 0.0000 -7.4898 -12.9902 -28.7320 11.7457 18.2811 65.1805 -0.0033 -4.7693 6.6910 0.4523 4.3148 11.9640 0.0000 0.0000 0.0000 30.2176 -5.9762 2.3981 -0.6127 -5.0098 13.9364 -0.7366 5.4888 -15.2920 -0.2046 -2.9127 8.0359 6.2647 0.7613 7.5397 5.4364 1.3589 2.3886 2.0003 0.5671 -1.7279 -11.6535 0.6362 -12.4444 2.8673 1.4211 38.5194 3.3698 -1.3108 15.5792 -0.0000 -0.0000 0.0000 -96.9635 5.8087 8.7003 14.2158 -23.0424 -2.9120 -0.0000 0.0000 -2.6907 28.7435 18.4581 9.8513 -7.1250 0.0000 -0.0000 0.6205 50.8201 0.0890 -0.0000 -0.0000 0.0000 79.3333 1.7570 17.2462 -15.2419 24.4820 -3.3255 0.0000 -0.0000 -11.4396 -23.3708 10.6025 -4.5461 7.1250 -0.0000 -0.0000 2.6029 -18.4608 1.6464
